<svg width="1920" height="94" viewBox="0 0 1920 94" fill="none" xmlns="http://www.w3.org/2000/svg">
<mask id="path-1-inside-1_141_4528" fill="white">
<path d="M0 0H1920V94H0V0Z"/>
</mask>
<path d="M0 0H1920V94H0V0Z" fill="white"/>
<path d="M1920 93H0V95H1920V93Z" fill="#EBEBEB" mask="url(#path-1-inside-1_141_4528)"/>
<path d="M241.428 42.2228C241.466 41.9925 241.543 41.8774 241.658 41.8774C241.755 41.8774 241.851 41.935 242.004 42.2803L245.58 49.5321L249.137 42.1844C249.233 41.9734 249.31 41.8774 249.425 41.8774C249.54 41.8774 249.617 42.0117 249.656 42.2803L250.848 50.2611C250.963 51.0861 251.097 51.4698 251.482 51.5849C251.866 51.7 252.116 51.7192 252.289 51.7192C252.405 51.7192 252.501 51.7383 252.501 51.8151C252.501 51.911 252.347 51.9494 252.155 51.9494C251.828 51.9494 250.021 51.9302 249.502 51.8918C249.194 51.8726 249.117 51.8343 249.117 51.7575C249.117 51.7 249.175 51.6616 249.252 51.6232C249.329 51.604 249.367 51.4314 249.31 51.0669L248.521 45.3882H248.464L245.619 51.2012C245.311 51.8151 245.253 51.9302 245.138 51.9302C245.023 51.9302 244.888 51.6616 244.677 51.2779C244.369 50.6832 243.331 48.688 243.177 48.3235C243.062 48.0549 242.274 46.5201 241.812 45.5417H241.755L241.082 50.6256C241.063 50.8559 241.043 51.0285 241.043 51.2395C241.043 51.4889 241.216 51.604 241.428 51.6616C241.658 51.7192 241.851 51.7192 241.985 51.7192C242.081 51.7192 242.178 51.7383 242.178 51.8151C242.178 51.9302 242.062 51.9494 241.87 51.9494C241.312 51.9494 240.736 51.911 240.505 51.911C240.255 51.911 239.621 51.9494 239.217 51.9494C239.082 51.9494 238.986 51.9302 238.986 51.8151C238.986 51.7575 239.063 51.7192 239.198 51.7192C239.294 51.7192 239.39 51.7192 239.582 51.6808C239.948 51.6041 240.044 51.0861 240.121 50.6448L241.428 42.2228Z" fill="black"/>
<path d="M254.576 45.8487C254.576 43.8727 254.576 43.5082 254.556 43.0861C254.537 42.6449 254.403 42.4147 254.114 42.3571C253.98 42.3187 253.807 42.2996 253.653 42.2996C253.518 42.2996 253.441 42.2804 253.441 42.1653C253.441 42.0885 253.538 42.0693 253.749 42.0693C254.249 42.0693 255.075 42.1077 255.441 42.1077C255.768 42.1077 256.536 42.0693 257.036 42.0693C257.209 42.0693 257.305 42.0885 257.305 42.1653C257.305 42.2612 257.229 42.2996 257.094 42.2996C256.959 42.2996 256.863 42.3187 256.709 42.3379C256.363 42.3955 256.248 42.6257 256.229 43.0861C256.21 43.5082 256.21 43.8727 256.21 45.8487V48.1509C256.21 49.4171 256.21 50.453 256.267 51.0094C256.306 51.3547 256.402 51.6041 256.786 51.6425C256.979 51.6617 257.248 51.7 257.459 51.7C257.594 51.7 257.671 51.7384 257.671 51.796C257.671 51.8919 257.575 51.9303 257.421 51.9303C256.556 51.9303 255.729 51.8919 255.383 51.8919C255.075 51.8919 254.268 51.9303 253.73 51.9303C253.557 51.9303 253.461 51.8919 253.461 51.796C253.461 51.7384 253.518 51.7 253.672 51.7C253.864 51.7 254.018 51.6809 254.133 51.6425C254.403 51.5849 254.479 51.3739 254.518 50.9902C254.576 50.4338 254.576 49.4171 254.576 48.1509V45.8487Z" fill="black"/>
<path d="M260.479 45.8487C260.479 43.8727 260.479 43.5082 260.46 43.0861C260.44 42.6449 260.325 42.4338 259.902 42.3379C259.806 42.3187 259.575 42.2996 259.383 42.2996C259.248 42.2996 259.152 42.2804 259.152 42.1845C259.152 42.0885 259.248 42.0693 259.441 42.0693C260.133 42.0693 260.959 42.1077 261.229 42.1077C261.671 42.1077 262.67 42.0693 263.074 42.0693C263.901 42.0693 264.766 42.1461 265.477 42.6257C265.842 42.8751 266.361 43.5466 266.361 44.4099C266.361 45.3691 265.958 46.2708 264.631 47.3259C265.785 48.784 266.688 49.9542 267.476 50.76C268.207 51.5082 268.745 51.6041 268.937 51.6425C269.072 51.6617 269.207 51.6808 269.303 51.6808C269.399 51.6808 269.456 51.7192 269.456 51.7768C269.456 51.8727 269.36 51.911 269.207 51.911H267.957C267.226 51.911 266.9 51.8535 266.554 51.6617C265.996 51.3547 265.496 50.7408 264.766 49.7432C264.247 49.0334 263.651 48.1317 263.478 47.9398C263.42 47.8631 263.343 47.8439 263.247 47.8439L262.113 47.8247C262.055 47.8247 262.017 47.8439 262.017 47.9206V48.1125C262.017 49.3211 262.017 50.3571 262.074 50.8943C262.113 51.278 262.19 51.5657 262.593 51.6041C262.786 51.6233 263.074 51.6617 263.228 51.6617C263.324 51.6617 263.382 51.7 263.382 51.7576C263.382 51.8535 263.286 51.8919 263.112 51.8919C262.363 51.8919 261.382 51.8535 261.19 51.8535C260.94 51.8535 260.114 51.8919 259.594 51.8919C259.421 51.8919 259.325 51.8535 259.325 51.7576C259.325 51.7 259.383 51.6617 259.537 51.6617C259.729 51.6617 259.883 51.6425 259.998 51.6041C260.267 51.5465 260.325 51.2588 260.383 50.8943C260.44 50.3379 260.44 49.3211 260.44 48.1125V45.8487H260.479ZM262.036 46.8847C262.036 47.019 262.055 47.0765 262.151 47.1149C262.42 47.2108 262.824 47.2492 263.151 47.2492C263.67 47.2492 263.843 47.1916 264.074 47.019C264.458 46.7312 264.843 46.1365 264.843 45.0621C264.843 43.2012 263.612 42.6832 262.843 42.6832C262.517 42.6832 262.286 42.7024 262.151 42.7408C262.055 42.76 262.036 42.8175 262.036 42.9326V46.8847Z" fill="black"/>
<path d="M270.879 48.6111C270.822 48.6111 270.783 48.6303 270.764 48.707L270.053 50.4912C269.918 50.8174 269.86 51.1243 269.86 51.2778C269.86 51.508 269.976 51.6807 270.38 51.6807H270.572C270.726 51.6807 270.764 51.6999 270.764 51.7766C270.764 51.8725 270.687 51.9109 270.533 51.9109C270.11 51.9109 269.553 51.8725 269.149 51.8725C269.015 51.8725 268.284 51.9109 267.611 51.9109C267.438 51.9109 267.361 51.8917 267.361 51.7766C267.361 51.6999 267.419 51.6807 267.515 51.6807C267.63 51.6807 267.823 51.6615 267.919 51.6615C268.515 51.5847 268.765 51.1435 269.034 50.4912L272.321 42.4145C272.475 42.0308 272.552 41.8965 272.686 41.8965C272.802 41.8965 272.879 42.0116 273.013 42.3185C273.321 43.0284 275.416 48.2466 276.262 50.2418C276.762 51.4121 277.146 51.6039 277.416 51.6615C277.608 51.6998 277.8 51.719 277.973 51.719C278.069 51.719 278.146 51.7382 278.146 51.815C278.146 51.9109 278.031 51.9492 277.55 51.9492C277.089 51.9492 276.127 51.9493 275.089 51.9301C274.859 51.9109 274.705 51.9109 274.705 51.8341C274.705 51.7574 274.763 51.7382 274.897 51.719C274.993 51.6998 275.089 51.5847 275.013 51.4121L273.974 48.7262C273.955 48.6687 273.917 48.6303 273.84 48.6303H270.879V48.6111ZM273.532 47.9588C273.59 47.9588 273.609 47.9205 273.59 47.8821L272.417 44.6783C272.398 44.6207 272.398 44.5631 272.36 44.5631C272.321 44.5631 272.302 44.6207 272.283 44.6783L271.072 47.8821C271.052 47.9396 271.072 47.978 271.129 47.978H273.532V47.9588Z" fill="black"/>
<path d="M287.432 51.0476C287.432 51.3929 287.413 51.4313 287.259 51.508C286.414 51.9492 285.126 52.1027 284.107 52.1027C280.896 52.1027 278.07 50.5871 278.07 46.9996C278.07 44.9085 279.147 43.4504 280.339 42.7406C281.588 41.9924 282.761 41.8965 283.857 41.8965C284.76 41.8965 285.914 42.05 286.164 42.1075C286.433 42.1651 286.894 42.2418 287.202 42.2418C287.356 42.261 287.394 42.2994 287.394 42.3953C287.394 42.5296 287.298 42.9133 287.298 44.5248C287.298 44.7358 287.259 44.7934 287.163 44.7934C287.067 44.7934 287.048 44.7358 287.029 44.6207C286.99 44.3137 286.933 43.9109 286.587 43.5464C286.202 43.1243 285.145 42.5296 283.665 42.5296C282.953 42.5296 281.992 42.5871 281.069 43.3353C280.339 43.9492 279.858 44.9277 279.858 46.5392C279.858 49.3401 281.646 51.4504 284.414 51.4504C284.76 51.4504 285.202 51.4504 285.529 51.3161C285.721 51.2202 285.779 51.0476 285.779 50.8365V49.6087C285.779 48.9564 285.779 48.4576 285.76 48.0739C285.741 47.6327 285.625 47.4217 285.202 47.3257C285.106 47.3066 284.876 47.2874 284.683 47.2874C284.568 47.2874 284.491 47.2682 284.491 47.1914C284.491 47.0955 284.587 47.0571 284.76 47.0571C285.433 47.0571 286.26 47.0955 286.663 47.0955C287.067 47.0955 287.759 47.0571 288.201 47.0571C288.374 47.0571 288.471 47.0763 288.471 47.1914C288.471 47.2682 288.394 47.2874 288.297 47.2874C288.201 47.2874 288.105 47.3066 287.951 47.3257C287.605 47.3833 287.471 47.6135 287.452 48.0739C287.432 48.4576 287.432 48.9948 287.432 49.6471V51.0476Z" fill="black"/>
<path d="M291.084 45.8491C291.084 43.8731 291.084 43.5085 291.065 43.0865C291.046 42.6452 290.93 42.4342 290.508 42.3383C290.411 42.3191 290.181 42.2999 289.989 42.2999C289.854 42.2999 289.758 42.2807 289.758 42.1848C289.758 42.0889 289.854 42.0697 290.046 42.0697C290.392 42.0697 290.777 42.0889 291.103 42.0889C291.45 42.1081 291.738 42.1081 291.93 42.1081C292.353 42.1081 294.948 42.1081 295.198 42.0889C295.448 42.0697 295.66 42.0313 295.756 42.0121C295.813 41.993 295.89 41.9546 295.967 41.9546C296.044 41.9546 296.044 42.0121 296.044 42.0697C296.044 42.1656 295.986 42.3191 295.948 42.9138C295.929 43.0481 295.91 43.6237 295.89 43.7771C295.871 43.8347 295.852 43.9114 295.756 43.9114C295.66 43.9114 295.64 43.8539 295.64 43.7196C295.64 43.6237 295.621 43.4126 295.563 43.2591C295.467 43.0289 295.333 42.8754 294.679 42.7987C294.448 42.7795 293.084 42.7412 292.814 42.7412C292.757 42.7412 292.718 42.7795 292.718 42.8754V46.1752C292.718 46.2711 292.738 46.3095 292.814 46.3095C293.103 46.3095 294.602 46.3095 294.91 46.2903C295.217 46.2711 295.429 46.2328 295.544 46.0985C295.64 46.0025 295.679 45.9258 295.756 45.9258C295.813 45.9258 295.852 45.945 295.852 46.0217C295.852 46.0985 295.794 46.3095 295.756 46.981C295.736 47.2496 295.698 47.7675 295.698 47.8635C295.698 47.9594 295.698 48.1129 295.583 48.1129C295.487 48.1129 295.467 48.0553 295.467 47.9977C295.448 47.8635 295.448 47.6908 295.41 47.5373C295.352 47.2687 295.16 47.0769 294.679 47.0193C294.429 47.0001 293.141 46.981 292.814 46.981C292.757 46.981 292.738 47.0385 292.738 47.1152V48.1512C292.738 48.5925 292.718 49.8011 292.738 50.1656C292.757 51.0673 292.968 51.2591 294.314 51.2591C294.66 51.2591 295.198 51.2591 295.544 51.1057C295.89 50.9522 296.044 50.6836 296.14 50.1464C296.159 50.0121 296.198 49.9546 296.275 49.9546C296.371 49.9546 296.371 50.0505 296.371 50.1848C296.371 50.4917 296.275 51.3742 296.198 51.6236C296.102 51.969 295.986 51.969 295.487 51.969C294.506 51.969 293.795 51.9498 293.218 51.9306C292.661 51.9114 292.257 51.8922 291.853 51.8922C291.719 51.8922 291.43 51.8922 291.103 51.9114C290.796 51.9114 290.469 51.9306 290.2 51.9306C290.027 51.9306 289.931 51.8922 289.931 51.7963C289.931 51.7387 289.989 51.7004 290.142 51.7004C290.335 51.7004 290.488 51.6812 290.604 51.6428C290.873 51.5853 290.93 51.2975 290.988 50.933C291.046 50.3766 291.046 49.3599 291.046 48.1512V45.8491H291.084Z" fill="black"/>
<path d="M311.192 51.0476C311.192 51.3929 311.173 51.4313 311.019 51.508C310.173 51.9492 308.885 52.1027 307.866 52.1027C304.656 52.1027 301.83 50.5871 301.83 46.9996C301.83 44.9085 302.907 43.4504 304.099 42.7406C305.348 41.9924 306.521 41.8965 307.616 41.8965C308.52 41.8965 309.673 42.05 309.923 42.1075C310.193 42.1651 310.654 42.2418 310.961 42.2418C311.115 42.261 311.154 42.2994 311.154 42.3953C311.154 42.5296 311.058 42.9133 311.058 44.5248C311.058 44.7358 311.019 44.7934 310.923 44.7934C310.827 44.7934 310.808 44.7358 310.788 44.6207C310.75 44.3137 310.692 43.9109 310.346 43.5464C309.962 43.1243 308.905 42.5296 307.424 42.5296C306.713 42.5296 305.752 42.5871 304.829 43.3353C304.099 43.9492 303.618 44.9277 303.618 46.5392C303.618 49.3401 305.406 51.4504 308.174 51.4504C308.52 51.4504 308.962 51.4504 309.289 51.3161C309.481 51.2202 309.539 51.0476 309.539 50.8365V49.6087C309.539 48.9564 309.539 48.4576 309.52 48.0739C309.5 47.6327 309.385 47.4217 308.962 47.3257C308.866 47.3066 308.635 47.2874 308.443 47.2874C308.328 47.2874 308.251 47.2682 308.251 47.1914C308.251 47.0955 308.347 47.0571 308.52 47.0571C309.193 47.0571 310.019 47.0955 310.423 47.0955C310.827 47.0955 311.519 47.0571 311.961 47.0571C312.134 47.0571 312.23 47.0763 312.23 47.1914C312.23 47.2682 312.153 47.2874 312.057 47.2874C311.961 47.2874 311.865 47.3066 311.711 47.3257C311.365 47.3833 311.231 47.6135 311.211 48.0739C311.192 48.4576 311.192 48.9948 311.192 49.6471V51.0476Z" fill="black"/>
<path d="M315.364 48.6111C315.306 48.6111 315.268 48.6303 315.248 48.707L314.537 50.4912C314.402 50.8174 314.345 51.1243 314.345 51.2778C314.345 51.508 314.46 51.6807 314.864 51.6807H315.056C315.21 51.6807 315.248 51.6999 315.248 51.7766C315.248 51.8725 315.171 51.9109 315.018 51.9109C314.595 51.9109 314.037 51.8725 313.634 51.8725C313.499 51.8725 312.768 51.9109 312.096 51.9109C311.923 51.9109 311.846 51.8917 311.846 51.7766C311.846 51.6999 311.903 51.6807 311.999 51.6807C312.115 51.6807 312.307 51.6615 312.403 51.6615C312.999 51.5847 313.249 51.1435 313.518 50.4912L316.805 42.4145C316.959 42.0308 317.036 41.8965 317.171 41.8965C317.286 41.8965 317.363 42.0116 317.498 42.3185C317.805 43.0284 319.901 48.2466 320.746 50.2418C321.246 51.4121 321.631 51.6039 321.9 51.6615C322.092 51.6998 322.284 51.719 322.457 51.719C322.553 51.719 322.63 51.7382 322.63 51.815C322.63 51.9109 322.515 51.9492 322.034 51.9492C321.573 51.9492 320.612 51.9493 319.574 51.9301C319.343 51.9109 319.189 51.9109 319.189 51.8341C319.189 51.7574 319.247 51.7382 319.382 51.719C319.478 51.6998 319.574 51.5847 319.497 51.4121L318.459 48.7262C318.44 48.6687 318.401 48.6303 318.324 48.6303H315.364V48.6111ZM318.017 47.9588C318.074 47.9588 318.094 47.9205 318.074 47.8821L316.902 44.6783C316.882 44.6207 316.882 44.5631 316.844 44.5631C316.805 44.5631 316.786 44.6207 316.767 44.6783L315.556 47.8821C315.537 47.9396 315.556 47.978 315.614 47.978H318.017V47.9588Z" fill="black"/>
<path d="M325.61 48.1509C325.61 49.8199 325.61 50.7216 325.879 50.9518C326.11 51.1437 326.436 51.2396 327.455 51.2396C328.147 51.2396 328.666 51.2204 328.993 50.8751C329.147 50.7024 329.301 50.3379 329.339 50.0885C329.359 49.9734 329.378 49.8967 329.474 49.8967C329.57 49.8967 329.57 49.9542 329.57 50.1269C329.57 50.2612 329.474 51.2396 329.378 51.6233C329.301 51.911 329.243 51.9686 328.551 51.9686C327.609 51.9686 326.936 51.9494 326.34 51.9302C325.744 51.9111 325.283 51.8919 324.745 51.8919C324.61 51.8919 324.322 51.8919 323.995 51.911C323.687 51.911 323.361 51.9302 323.092 51.9302C322.918 51.9302 322.822 51.8919 322.822 51.7959C322.822 51.7384 322.88 51.7 323.034 51.7C323.226 51.7 323.38 51.6808 323.495 51.6425C323.764 51.5849 323.822 51.2971 323.88 50.9326C323.937 50.3763 323.937 49.3595 323.937 48.1509V45.8487C323.937 43.8727 323.937 43.5082 323.918 43.0861C323.899 42.6449 323.784 42.4338 323.361 42.3379C323.265 42.3187 323.092 42.2996 322.938 42.2996C322.803 42.2996 322.707 42.2804 322.707 42.1845C322.707 42.0885 322.803 42.0693 322.995 42.0693C323.611 42.0693 324.437 42.1077 324.783 42.1077C325.091 42.1077 326.052 42.0693 326.552 42.0693C326.744 42.0693 326.821 42.0885 326.821 42.1845C326.821 42.2804 326.744 42.2996 326.59 42.2996C326.456 42.2996 326.244 42.3187 326.071 42.3379C325.725 42.3955 325.61 42.6257 325.591 43.0861C325.571 43.5082 325.571 43.8727 325.571 45.8487V48.1509H325.61Z" fill="black"/>
<path d="M333.512 48.1509C333.512 49.8199 333.512 50.7216 333.781 50.9518C334.012 51.1437 334.339 51.2396 335.358 51.2396C336.05 51.2396 336.569 51.2204 336.896 50.8751C337.049 50.7024 337.203 50.3379 337.242 50.0885C337.261 49.9734 337.28 49.8967 337.376 49.8967C337.472 49.8967 337.472 49.9542 337.472 50.1269C337.472 50.2612 337.376 51.2396 337.28 51.6233C337.203 51.911 337.146 51.9686 336.453 51.9686C335.512 51.9686 334.839 51.9494 334.243 51.9302C333.647 51.9111 333.185 51.8919 332.647 51.8919C332.513 51.8919 332.224 51.8919 331.897 51.911C331.59 51.911 331.263 51.9302 330.994 51.9302C330.821 51.9302 330.725 51.8919 330.725 51.7959C330.725 51.7384 330.782 51.7 330.936 51.7C331.128 51.7 331.282 51.6808 331.398 51.6425C331.667 51.5849 331.724 51.2971 331.782 50.9326C331.84 50.3763 331.84 49.3595 331.84 48.1509V45.8487C331.84 43.8727 331.84 43.5082 331.82 43.0861C331.801 42.6449 331.686 42.4338 331.263 42.3379C331.167 42.3187 330.994 42.2996 330.84 42.2996C330.705 42.2996 330.609 42.2804 330.609 42.1845C330.609 42.0885 330.705 42.0693 330.898 42.0693C331.513 42.0693 332.34 42.1077 332.686 42.1077C332.993 42.1077 333.954 42.0693 334.454 42.0693C334.646 42.0693 334.723 42.0885 334.723 42.1845C334.723 42.2804 334.646 42.2996 334.493 42.2996C334.358 42.2996 334.147 42.3187 333.974 42.3379C333.628 42.3955 333.512 42.6257 333.493 43.0861C333.474 43.5082 333.474 43.8727 333.474 45.8487V48.1509H333.512Z" fill="black"/>
<path d="M339.797 45.8491C339.797 43.8731 339.797 43.5085 339.778 43.0865C339.759 42.6452 339.643 42.4342 339.22 42.3383C339.124 42.3191 338.894 42.2999 338.701 42.2999C338.567 42.2999 338.471 42.2807 338.471 42.1848C338.471 42.0889 338.567 42.0697 338.759 42.0697C339.105 42.0697 339.49 42.0889 339.816 42.0889C340.162 42.1081 340.451 42.1081 340.643 42.1081C341.066 42.1081 343.661 42.1081 343.911 42.0889C344.161 42.0697 344.372 42.0313 344.469 42.0121C344.526 41.993 344.603 41.9546 344.68 41.9546C344.757 41.9546 344.757 42.0121 344.757 42.0697C344.757 42.1656 344.699 42.3191 344.661 42.9138C344.642 43.0481 344.622 43.6237 344.603 43.7771C344.584 43.8347 344.565 43.9114 344.469 43.9114C344.372 43.9114 344.353 43.8539 344.353 43.7196C344.353 43.6237 344.334 43.4126 344.276 43.2591C344.18 43.0289 344.046 42.8754 343.392 42.7987C343.161 42.7795 341.796 42.7412 341.527 42.7412C341.47 42.7412 341.431 42.7795 341.431 42.8754V46.1752C341.431 46.2711 341.45 46.3095 341.527 46.3095C341.816 46.3095 343.315 46.3095 343.623 46.2903C343.93 46.2711 344.142 46.2328 344.257 46.0985C344.353 46.0025 344.392 45.9258 344.469 45.9258C344.526 45.9258 344.565 45.945 344.565 46.0217C344.565 46.0985 344.507 46.3095 344.469 46.981C344.449 47.2496 344.411 47.7675 344.411 47.8635C344.411 47.9594 344.411 48.1129 344.296 48.1129C344.199 48.1129 344.18 48.0553 344.18 47.9977C344.161 47.8635 344.161 47.6908 344.123 47.5373C344.065 47.2687 343.873 47.0769 343.392 47.0193C343.142 47.0001 341.854 46.981 341.527 46.981C341.47 46.981 341.45 47.0385 341.45 47.1152V48.1512C341.45 48.5925 341.431 49.8011 341.45 50.1656C341.47 51.0673 341.681 51.2591 343.027 51.2591C343.373 51.2591 343.911 51.2591 344.257 51.1057C344.603 50.9522 344.757 50.6836 344.853 50.1464C344.872 50.0121 344.911 49.9546 344.988 49.9546C345.084 49.9546 345.084 50.0505 345.084 50.1848C345.084 50.4917 344.988 51.3742 344.911 51.6236C344.815 51.969 344.699 51.969 344.199 51.969C343.219 51.969 342.508 51.9498 341.931 51.9306C341.374 51.9114 340.97 51.8922 340.566 51.8922C340.432 51.8922 340.143 51.8922 339.816 51.9114C339.509 51.9114 339.182 51.9306 338.913 51.9306C338.74 51.9306 338.644 51.8922 338.644 51.7963C338.644 51.7387 338.701 51.7004 338.855 51.7004C339.047 51.7004 339.201 51.6812 339.317 51.6428C339.586 51.5853 339.643 51.2975 339.701 50.933C339.759 50.3766 339.759 49.3599 339.759 48.1512V45.8491H339.797Z" fill="black"/>
<path d="M348.045 45.8487C348.045 43.8727 348.045 43.5082 348.026 43.0861C348.007 42.6449 347.891 42.4338 347.468 42.3379C347.372 42.3187 347.142 42.2996 346.949 42.2996C346.815 42.2996 346.719 42.2804 346.719 42.1845C346.719 42.0885 346.815 42.0693 347.007 42.0693C347.699 42.0693 348.526 42.1077 348.795 42.1077C349.237 42.1077 350.237 42.0693 350.64 42.0693C351.467 42.0693 352.332 42.1461 353.043 42.6257C353.409 42.8751 353.928 43.5466 353.928 44.4099C353.928 45.3691 353.524 46.2708 352.198 47.3259C353.37 48.784 354.255 49.9542 355.043 50.76C355.773 51.5082 356.312 51.6041 356.504 51.6425C356.638 51.6617 356.773 51.6808 356.869 51.6808C356.965 51.6808 357.023 51.7192 357.023 51.7768C357.023 51.8727 356.927 51.911 356.773 51.911H355.523C354.793 51.911 354.466 51.8535 354.12 51.6617C353.562 51.3547 353.063 50.7408 352.332 49.7432C351.813 49.0334 351.217 48.1317 351.044 47.9398C350.986 47.8631 350.91 47.8439 350.813 47.8439L349.679 47.8247C349.622 47.8247 349.583 47.8439 349.583 47.9206V48.1125C349.583 49.3211 349.583 50.3571 349.641 50.8943C349.679 51.278 349.756 51.5657 350.16 51.6041C350.352 51.6233 350.64 51.6617 350.794 51.6617C350.89 51.6617 350.948 51.7 350.948 51.7576C350.948 51.8535 350.852 51.8919 350.679 51.8919C349.929 51.8919 348.949 51.8535 348.756 51.8535C348.507 51.8535 347.68 51.8919 347.161 51.8919C346.988 51.8919 346.892 51.8535 346.892 51.7576C346.892 51.7 346.949 51.6617 347.103 51.6617C347.295 51.6617 347.449 51.6425 347.565 51.6041C347.834 51.5465 347.891 51.2588 347.949 50.8943C348.007 50.3379 348.007 49.3211 348.007 48.1125V45.8487H348.045ZM349.602 46.8847C349.602 47.019 349.622 47.0765 349.718 47.1149C349.987 47.2108 350.391 47.2492 350.717 47.2492C351.236 47.2492 351.409 47.1916 351.64 47.019C352.025 46.7312 352.409 46.1365 352.409 45.0621C352.409 43.2012 351.179 42.6832 350.41 42.6832C350.083 42.6832 349.852 42.7024 349.718 42.7408C349.622 42.76 349.602 42.8175 349.602 42.9326V46.8847Z" fill="black"/>
<path d="M359.117 48.5539C359.117 47.8441 358.983 47.5563 358.81 47.1918C358.714 46.9807 356.964 44.1222 356.503 43.4316C356.176 42.952 355.849 42.6258 355.599 42.4724C355.426 42.3764 355.215 42.2997 355.042 42.2997C354.946 42.2997 354.85 42.2805 354.85 42.1846C354.85 42.1078 354.946 42.0695 355.1 42.0695C355.33 42.0695 356.311 42.1078 356.753 42.1078C357.022 42.1078 357.56 42.0695 358.156 42.0695C358.291 42.0695 358.348 42.1078 358.348 42.1846C358.348 42.2613 358.252 42.2805 358.06 42.3189C357.945 42.3381 357.868 42.4532 357.868 42.5491C357.868 42.645 357.925 42.8177 358.022 42.9903C358.214 43.374 360.04 46.5203 360.252 46.8848C360.386 46.5779 362.02 43.7002 362.212 43.2973C362.347 43.0095 362.405 42.7793 362.405 42.6258C362.405 42.4915 362.347 42.3572 362.136 42.2997C362.02 42.2805 361.905 42.2421 361.905 42.1654C361.905 42.0695 361.962 42.0503 362.136 42.0503C362.558 42.0503 362.981 42.0887 363.366 42.0887C363.654 42.0887 364.519 42.0503 364.769 42.0503C364.904 42.0503 365 42.0695 365 42.1462C365 42.2421 364.904 42.2805 364.75 42.2805C364.615 42.2805 364.366 42.3381 364.173 42.434C363.904 42.5683 363.75 42.7218 363.462 43.0671C363.039 43.5851 361.194 46.6546 360.963 47.211C360.771 47.6714 360.771 48.0935 360.771 48.5155V49.5899C360.771 49.8009 360.771 50.3381 360.809 50.8944C360.828 51.2781 360.944 51.5659 361.347 51.6042C361.54 51.6234 361.809 51.6618 362.001 51.6618C362.136 51.6618 362.212 51.7002 362.212 51.7577C362.212 51.8536 362.116 51.892 361.943 51.892C361.117 51.892 360.29 51.8536 359.944 51.8536C359.617 51.8536 358.791 51.892 358.31 51.892C358.118 51.892 358.022 51.8728 358.022 51.7577C358.022 51.7002 358.079 51.6618 358.233 51.6618C358.425 51.6618 358.579 51.6426 358.694 51.6042C358.964 51.5467 359.079 51.2589 359.098 50.8944C359.137 50.3381 359.137 49.8009 359.137 49.5899V48.5539H359.117Z" fill="black"/>
<path d="M235.892 31H234.738V63H235.892V31Z" fill="black"/>
<path d="M223.877 50.8368C223.877 51.0094 223.627 51.0861 223.3 51.0861C222.742 51.0861 219.609 51.0094 218.725 50.9519C218.205 50.9327 218.071 50.8367 218.071 50.7025C218.071 50.6065 218.167 50.5298 218.321 50.4722C218.436 50.4147 218.494 50.1653 218.417 49.5706L218.167 47.6521L218.032 46.6161L217.917 45.772L217.783 44.7936L217.706 44.1989L217.629 43.6041L217.206 40.3811H217.129L212.381 49.8008C211.881 50.7984 211.746 51.0094 211.496 51.0094C211.227 51.0094 210.977 50.5873 210.612 49.9351C210.093 48.9567 208.324 45.6953 208.074 45.1005C207.901 44.6977 206.594 42.1269 205.864 40.6497H205.787L204.729 48.8607C204.672 49.2444 204.653 49.513 204.653 49.8583C204.653 50.2612 204.96 50.4147 205.325 50.4914C205.71 50.5682 205.902 50.5874 206.094 50.5874C206.287 50.5874 206.44 50.6833 206.44 50.7792C206.44 50.971 206.248 51.0286 205.921 51.0286C204.999 51.0286 203.98 50.9519 203.595 50.9519C203.172 50.9519 202.115 51.0286 201.404 51.0286C201.173 51.0286 201 50.971 201 50.7792C201 50.6833 201.135 50.5874 201.346 50.5874C201.519 50.5874 201.673 50.5874 202.019 50.5298C202.615 50.4531 202.826 49.6089 202.922 48.8991L205.114 35.0861C205.172 34.7408 205.364 34.5298 205.537 34.5298C205.768 34.5298 205.921 34.6257 206.21 35.2012L212.131 46.9806L218.052 35.0478C218.225 34.7024 218.436 34.5298 218.628 34.5298C218.801 34.5298 219.051 34.76 219.128 35.2012L220.243 42.5106L220.32 43.0478L220.397 43.5849L220.416 43.7576L220.493 44.314L220.57 44.8703L221.089 48.2852C221.281 49.6089 221.493 50.1845 222.166 50.3955C222.8 50.5682 223.146 50.5874 223.415 50.5874C223.723 50.6449 223.877 50.7216 223.877 50.8368Z" fill="black"/>
<path d="M231.605 51.3742C231.605 51.5085 231.47 51.6044 231.336 51.6044C231.163 51.6044 230.99 51.6236 230.74 51.6811C230.144 51.7771 229.913 52.084 229.894 52.8322C229.875 53.4845 229.875 54.3286 229.875 55.3838V57.7435C229.875 58.319 229.875 58.3382 229.606 58.4917C228.125 59.2207 225.934 59.4509 224.204 59.4509C218.782 59.4509 213.976 56.9953 213.976 51.1056C213.976 48.0552 215.437 45.8298 217.206 44.5444L217.283 45.1583L217.456 46.5205L217.61 47.614C217.36 48.3622 217.225 49.2639 217.225 50.3382C217.225 54.9233 220.186 58.2615 224.915 58.2615C225.492 58.2615 225.953 58.2615 226.472 58.0313C226.799 57.8778 226.895 57.6476 226.895 57.283V55.3262C226.895 54.2711 226.895 53.4653 226.876 52.813C226.857 52.084 226.626 51.8538 225.915 51.6619C225.742 51.6044 225.357 51.5852 225.069 51.5852C224.876 51.5852 224.723 51.4893 224.723 51.355C224.723 51.1823 224.896 51.1631 225.203 51.1631C226.357 51.1631 227.933 51.2207 228.587 51.2207C229.298 51.2207 230.451 51.1631 231.182 51.1631C231.47 51.1631 231.605 51.2015 231.605 51.3742Z" fill="black"/>
</svg>
